<?xml version="1.0" encoding="UTF-8"?>
<svg id="Layer_1" data-name="Layer 1" xmlns="http://www.w3.org/2000/svg" viewBox="0 10 240 405">
  <defs>
    <style>
      .cls-1 {
        fill: #fefefe;
      }

      .cls-1, .cls-2, .cls-3, .cls-4, .cls-5, .cls-6, .cls-7, .cls-8, .cls-9, .cls-10, .cls-11, .cls-12, .cls-13 {
        stroke-width: 0px;
      }

      .cls-2 {
        fill: #d3abae;
      }

      .cls-3 {
        fill: #ebdadb;
      }

      .cls-4 {
        fill: #9d0026;
      }

      .cls-5 {
        fill: #9c001e;
      }

      .cls-6 {
        fill: #b7737e;
      }

      .cls-7 {
        fill: #dab6b7;
      }

      .cls-8 {
        fill: #af5a65;
      }

      .cls-9 {
        fill: #e1c5c7;
      }

      .cls-10 {
        fill: #c18189;
      }

      .cls-11 {
        fill: #9f112e;
      }

      .cls-12 {
        fill: #9e0028;
      }

      .cls-13 {
        fill: #d5b7bb;
      }
    </style>
  </defs>
  <path class="cls-1" d="m313.97,182.48c-5.08,1.27-10.15,2.53-15.23,3.8-.12-17.02-.25-34.05-.37-51.07-3.28-1.34-6.56-3.83-9.85-3.85-39.67-.27-79.35-.22-119.03-.08-3.21.01-6.42,1.33-9.63,2.04-.19.53-.15,1.05.12,1.54-.08,16.54-.17,33.07-.25,49.61-4.42.52-8.85,1.05-13.27,1.57-.49-.57-.97-1.13-1.46-1.7-.13-22.14-.25-44.28-.38-66.42.6-.41,1.21-.82,1.81-1.23.6,0,1.2,0,1.81.01,15.44.21,30.88.52,46.32.61,39.75.24,79.5.38,119.24.56.06,21.54.11,43.08.17,64.62Z"/>
  <path class="cls-1" d="m203.49,163.83c-6.36-.8-11.83-1.44-11.63,8.22.31,14.98-.18,14.99-16.4,13.77v-37.24c14.97,0,29.98,0,44.98,0,.46.61.91,1.22,1.37,1.82,0,43.61,0,87.22,0,130.83-.46.61-.92,1.22-1.38,1.83h-39.22v-15.25h22.28l.83.25.85-.18c.43-.69.87-1.38,1.3-2.06,0-33.33,0-66.66,0-99.99-.43-.69-.87-1.37-1.3-2.06-.57-.27-1.13-.25-1.68.06Z"/>
  <path class="cls-1" d="m254.76,267.8c3.14.11,6.28.29,9.43.3q13.88.04,13.02,15.04c-13.04,0-26.17,0-39.29,0,0-44.89,0-89.78,0-134.67,12.6-.06,25.2.07,37.79-.26,5.78-.15,7.99,2.09,7.68,7.78-.3,5.65-.06,11.34-.07,17.01q0,13.89-15.2,12.8v-20.2c-4.8,0-9.08,0-13.36,0-.75,1.08-2.17,2.16-2.17,3.24.07,33.09.28,66.17.47,99.25-.35.17-.7.35-1.05.52.19.04.49.19.56.11.17-.18.24-.46.35-.7l.93.05.89-.27Z"/>
  <path class="cls-1" d="m277.57,300.63q.1,13.19-13.45,13.19c-27.45,0-54.9,0-83.18,0v-13.34c.54-.5,1.09-1,1.63-1.51,29.33-.09,58.66-.22,87.98-.17,2.34,0,4.68,1.19,7.02,1.83Z"/>
  <path class="cls-4" d="m159.98,134.86c-.27-.5-.31-1.01-.12-1.54,43.66-.08,87.33-.18,130.99-.16,1.96,0,3.92,1.12,5.88,1.72l-.13.11c-45.09.07-90.18.13-135.27.2-.45-.13-.9-.24-1.35-.33Z"/>
  <path class="cls-12" d="m221.8,281.23c0-43.61,0-87.22,0-130.83.16-.69.32-1.37.48-2.06.69,2.96,1.98,5.92,1.99,8.88.13,39.06.13,78.13,0,117.19-.01,2.96-1.29,5.92-1.98,8.88-.16-.69-.32-1.37-.49-2.06Z"/>
  <path class="cls-6" d="m237.92,148.48c0,44.89,0,89.78,0,134.67-.68-2.59-1.96-5.17-1.96-7.76-.13-39.71-.13-79.43,0-119.14,0-2.59,1.28-5.17,1.96-7.76Z"/>
  <path class="cls-4" d="m254.76,267.8l-.89.27-.93-.05.13.07c-.19-33.09-.4-66.17-.47-99.26,0-1.08,1.41-2.16,2.17-3.24,0,34.07,0,68.14,0,102.2Z"/>
  <path class="cls-5" d="m277.57,300.63c-2.34-.64-4.68-1.83-7.02-1.83-29.33-.04-58.66.09-87.98.17-.63-.08-1.26-.16-1.89-.25,2.97-.69,5.93-1.97,8.9-1.99,26.22-.16,52.44-.22,78.66.08,3.13.04,6.23,2.48,9.34,3.81Z"/>
  <path class="cls-4" d="m144.63,117.91c.13,22.14.25,44.28.38,66.42-.11.65-.22,1.3-.33,1.95-.69-2-1.96-3.99-1.98-6-.15-18.78-.15-37.57,0-56.35.02-2.01,1.26-4.01,1.94-6.02Z"/>
  <path class="cls-5" d="m313.97,182.48c-.06-21.54-.11-43.08-.17-64.62.62,3.64,1.83,7.29,1.76,10.92-.34,17.9-1.03,35.8-1.59,53.7Z"/>
  <path class="cls-12" d="m298.37,135.2c.12,17.02.25,34.05.37,51.07-.7-5.46-1.86-10.91-2.01-16.39-.32-11.62-.12-23.26-.13-34.9,0,0,.13-.11.13-.11.56.05,1.1.16,1.64.33Z"/>
  <path class="cls-8" d="m159.98,134.86c.46.09.91.2,1.35.33.14,15.81.28,31.62.41,47.43-.06.61-.02,1.21.1,1.8-.71.01-1.41.03-2.12.04.08-16.53.17-33.07.25-49.6Z"/>
  <path class="cls-11" d="m148.24,116.69c-.6,0-1.2,0-1.81-.01.6,0,1.2,0,1.81.01Z"/>
  <path class="cls-2" d="m222.29,148.34c-.16.68-.32,1.37-.48,2.06-.46-.61-.91-1.22-1.37-1.82.6-.23,1.22-.31,1.85-.23Z"/>
  <path class="cls-11" d="m203.49,163.83c.55-.31,1.11-.33,1.68-.06.1.57.08,1.13-.06,1.69-.54-.54-1.08-1.08-1.62-1.62Z"/>
  <path class="cls-10" d="m205.1,165.45c.15-.56.17-1.12.06-1.69.44.69.87,1.37,1.3,2.06-.5.05-.96-.08-1.37-.37Z"/>
  <path class="cls-11" d="m161.85,184.42c-.13-.6-.16-1.2-.1-1.8.18.41.42.8.51,1.22.04.16-.26.39-.41.58Z"/>
  <path class="cls-9" d="m144.67,186.28c.11-.65.22-1.3.33-1.95.49.57.97,1.13,1.46,1.7,0,0-.88.25-.88.25h-.91Z"/>
  <path class="cls-11" d="m205.17,267.87l-.85.18-.83-.25c.54-.54,1.08-1.08,1.62-1.62.15.56.17,1.12.06,1.69Z"/>
  <path class="cls-10" d="m205.17,267.87c.11-.57.09-1.13-.06-1.69.41-.29.87-.41,1.37-.37-.43.69-.87,1.38-1.3,2.06Z"/>
  <path class="cls-2" d="m221.8,281.23c.16.69.33,1.37.49,2.06,0,0-.95,0-.95,0,0,0-.92-.23-.92-.23.46-.61.92-1.22,1.38-1.83Z"/>
  <path class="cls-3" d="m180.67,298.73c.63.08,1.26.16,1.89.25-.54.5-1.09,1-1.63,1.51-.26-.56-.35-1.14-.26-1.75Z"/>
  <path class="cls-13" d="m298.37,135.2c-.53-.17-1.08-.28-1.64-.33-1.96-.6-3.92-1.72-5.88-1.72-43.66-.02-87.33.08-130.99.16,3.21-.71,6.42-2.03,9.63-2.04,39.68-.14,79.35-.19,119.03.08,3.29.02,6.57,2.51,9.85,3.85Z"/>
  <path class="cls-7" d="m252.94,268.02c-.11.24-.18.52-.35.7-.07.07-.37-.07-.56-.11.35-.17.7-.35,1.05-.52,0,0-.13-.07-.13-.07Z"/>
</svg>